<svg xmlns="http://www.w3.org/2000/svg" width="512" height="525" viewBox="0 0 512 525" version="1.1"><path d="M 316.441 163.500 C 316.442 179.450, 316.580 185.835, 316.748 177.689 C 316.916 169.543, 316.916 156.493, 316.747 148.689 C 316.579 140.885, 316.441 147.550, 316.441 163.500 M 356.250 136.392 C 357.903 137.647, 358 146.207, 358 291.311 C 358 436.532, 357.905 444.956, 356.250 445.920 C 355.004 446.645, 358.851 446.948, 369.595 446.970 C 382.972 446.997, 384.878 446.792, 386.345 445.171 C 387.870 443.486, 388 431.341, 388 290.826 C 388 144.341, 387.928 138.245, 386.171 136.655 C 384.638 135.267, 381.933 135.005, 369.421 135.032 C 356.798 135.059, 354.770 135.268, 356.250 136.392 M 264.010 200.250 C 264.061 211.325, 268.632 247.851, 271.643 261.250 L 273.160 268 290.013 268 C 305.197 268, 306.917 267.827, 307.387 266.250 C 309.947 257.657, 314.416 226.147, 315.543 208.750 L 316.239 198 290.119 198 L 264 198 264.010 200.250" stroke="none" fill="#fe9a7f" fill-rule="evenodd"/><path d="M 283.001 67.123 C 281.626 67.672, 279.446 69.106, 278.155 70.310 C 273.790 74.386, 273 77.243, 273 88.950 L 273 100 290.500 100 L 308 100 307.976 91.750 C 307.937 78.127, 305.977 72.992, 299.010 68.250 C 295.415 65.803, 287.677 65.259, 283.001 67.123 M 316.667 109.667 C 316.300 110.033, 316 112.958, 316 116.167 L 316 122 323.250 122.015 C 327.238 122.024, 331.148 122.441, 331.941 122.942 C 333.881 124.170, 334.886 134.050, 334.949 152.527 C 334.989 164.448, 335.322 168.014, 336.557 169.777 C 338.500 172.552, 342.346 172.654, 345 170 C 346.820 168.180, 347.021 166.489, 347.235 151.250 C 347.564 127.849, 347.508 124.874, 346.679 121.725 C 345.575 117.527, 339.326 111.185, 335.152 110.025 C 331.071 108.892, 317.701 108.632, 316.667 109.667 M 171.392 168.979 C 170.120 169.492, 169.029 171.104, 168.642 173.040 C 167.386 179.318, 167.938 230.318, 169.290 233 C 170.711 235.819, 173.894 236.662, 176.948 235.028 C 178.842 234.014, 179 233.006, 179 221.965 C 179 213.152, 179.325 210, 180.232 210 C 180.910 210, 185.844 214.363, 191.197 219.696 L 200.930 229.393 195.465 235.122 C 189.497 241.379, 188.985 242.985, 192 246 C 195.091 249.091, 197.126 248.447, 202.970 242.531 L 208.371 237.061 213.626 242.031 C 219.066 247.176, 221.333 247.939, 224.434 245.672 C 227.713 243.274, 226.681 239.261, 221.411 233.910 L 216.572 228.997 221.786 223.717 C 227.091 218.345, 228.345 214.745, 225.800 212.200 C 223.254 209.654, 219.655 210.909, 214.281 216.216 L 209 221.432 203.500 216 C 200.475 213.013, 198 210.266, 198 209.895 C 198 209.525, 199.602 208.922, 201.560 208.555 C 205.832 207.753, 212.770 201.780, 214.653 197.282 C 216.483 192.910, 216.350 184.596, 214.388 180.700 C 211.621 175.207, 206.874 171.040, 201.596 169.473 C 196.155 167.857, 175.023 167.511, 171.392 168.979 M 179 189 L 179 199 188.250 198.985 C 199.028 198.968, 201.806 197.901, 204.296 192.819 C 205.921 189.502, 205.952 188.820, 204.624 185.643 C 202.467 180.480, 198.774 179, 188.050 179 L 179 179 179 189 M 274 270.102 C 274 273.219, 279.428 288.851, 283.461 297.351 C 288.456 307.876, 291.242 308.403, 295.672 299.661 C 298.993 293.108, 302.517 283.717, 304.947 274.949 L 306.873 268 290.436 268 C 274.400 268, 274 268.051, 274 270.102" stroke="none" fill="#183f9d" fill-rule="evenodd"/><path d="M 316.441 163.500 C 316.442 179.450, 316.580 185.835, 316.748 177.689 C 316.916 169.543, 316.916 156.493, 316.747 148.689 C 316.579 140.885, 316.441 147.550, 316.441 163.500 M 356.250 136.392 C 357.903 137.647, 358 146.207, 358 291.311 C 358 436.532, 357.905 444.956, 356.250 445.920 C 355.004 446.645, 358.851 446.948, 369.595 446.970 C 382.972 446.997, 384.878 446.792, 386.345 445.171 C 387.870 443.486, 388 431.341, 388 290.826 C 388 144.341, 387.928 138.245, 386.171 136.655 C 384.638 135.267, 381.933 135.005, 369.421 135.032 C 356.798 135.059, 354.770 135.268, 356.250 136.392 M 264.010 200.250 C 264.061 211.325, 268.632 247.851, 271.643 261.250 L 273.160 268 290.013 268 C 305.197 268, 306.917 267.827, 307.387 266.250 C 309.947 257.657, 314.416 226.147, 315.543 208.750 L 316.239 198 290.119 198 L 264 198 264.010 200.250" stroke="none" fill="#fe9a7f" fill-rule="evenodd"/><path d="M 295.750 100.662 C 296.726 101.056, 297 111.786, 297 149.583 L 297 198 306.500 198 L 316 198 316.190 166.250 C 316.295 148.787, 316.449 127.525, 316.533 119 C 316.617 110.475, 316.501 102.713, 316.276 101.750 C 315.915 100.212, 314.572 100.010, 305.183 100.079 C 299.307 100.122, 295.063 100.385, 295.750 100.662" stroke="none" fill="#ad4326" fill-rule="evenodd"/><path d="M 264.119 101.356 C 263.299 102.345, 263.174 115.640, 263.660 150.356 L 264.326 198 280.663 198 L 297 198 297 149.607 C 297 106.401, 296.830 101.149, 295.418 100.607 C 294.548 100.273, 287.403 100, 279.541 100 C 268.727 100, 264.971 100.330, 264.119 101.356" stroke="none" fill="#fe6940" fill-rule="evenodd"/><path d="M 179 189 L 179 199 188.750 198.792 L 198.500 198.585 189.250 198.255 L 180 197.925 180 189 L 180 180.075 189.250 179.745 L 198.500 179.415 188.750 179.208 L 179 179 179 189 M 216.232 189 C 216.232 190.925, 216.438 191.713, 216.689 190.750 C 216.941 189.787, 216.941 188.213, 216.689 187.250 C 216.438 186.287, 216.232 187.075, 216.232 189 M 179.378 221 C 179.378 227.325, 179.541 229.912, 179.739 226.750 C 179.937 223.588, 179.937 218.412, 179.739 215.250 C 179.541 212.088, 179.378 214.675, 179.378 221 M 213 216.500 C 210.571 218.975, 208.809 221, 209.084 221 C 209.359 221, 211.571 218.975, 214 216.500 C 216.429 214.025, 218.191 212, 217.916 212 C 217.641 212, 215.429 214.025, 213 216.500 M 221.462 224.250 L 216.500 229.500 221.750 224.538 C 226.628 219.926, 227.459 219, 226.712 219 C 226.554 219, 224.192 221.363, 221.462 224.250 M 195.462 234.250 L 190.500 239.500 195.750 234.538 C 200.628 229.926, 201.459 229, 200.712 229 C 200.554 229, 198.192 231.363, 195.462 234.250 M 202.966 242.750 L 197.500 248.500 203.250 243.034 C 208.592 237.956, 209.458 237, 208.716 237 C 208.560 237, 205.972 239.588, 202.966 242.750 M 169.415 294.389 C 162.737 297.367, 160.171 304.562, 163.494 310.989 C 166.575 316.947, 166.870 317, 196.823 317 L 224.200 317 227.600 313.600 C 230.484 310.716, 231 309.500, 231 305.585 C 231 301.726, 230.440 300.359, 227.578 297.235 L 224.157 293.500 198.328 293.257 C 178.153 293.067, 171.825 293.315, 169.415 294.389 M 170.538 339.482 C 163.274 342.100, 160.356 348.970, 163.647 355.707 C 167.371 363.331, 163.725 362.997, 243.282 362.998 C 318.619 363, 318.043 363.035, 322.335 358.216 C 326.661 353.357, 325.077 344.063, 319.274 340.259 C 316.784 338.627, 311.445 338.484, 245.545 338.277 C 186.100 338.091, 173.853 338.288, 170.538 339.482 M 166.566 387.076 C 164.452 388.932, 162.819 391.447, 162.450 393.415 C 161.603 397.928, 164.152 403.510, 168.190 405.985 C 171.447 407.982, 172.674 408.010, 244.827 407.757 L 318.154 407.500 321.577 403.765 C 325.445 399.543, 326.076 394.981, 323.483 389.967 C 320.285 383.783, 323.209 384, 243.084 384 L 170.070 384 166.566 387.076" stroke="none" fill="#3674d3" fill-rule="evenodd"/><path d="M 125.207 136.193 C 123.456 137.944, 123.449 444.049, 125.200 445.800 C 126.793 447.393, 353.096 447.554, 356.066 445.965 C 357.965 444.948, 358 442.166, 358 291.325 C 358 146.208, 357.903 137.647, 356.250 136.392 C 355.287 135.661, 352.813 135.049, 350.750 135.032 L 347 135 347 151.929 C 347 171.534, 346.550 172.739, 339.500 172.029 C 338.400 171.918, 337.050 171.395, 336.500 170.867 C 335.950 170.339, 335.275 162.165, 335 152.703 L 334.500 135.500 325.750 135.211 L 317 134.922 317 160.228 C 317 201.958, 314.654 229.628, 308.491 260.573 C 304.993 278.137, 300.990 290.809, 296.223 299.415 C 291.071 308.716, 288.445 308.257, 282.899 297.086 C 276.630 284.460, 272.489 269.145, 268.543 244 C 265.257 223.059, 264.729 214.917, 264.127 176 L 263.500 135.500 194.957 135.243 C 142.476 135.047, 126.131 135.269, 125.207 136.193 M 169.655 169.829 C 168.191 171.447, 168.002 175.161, 168.015 202.079 C 168.024 218.810, 168.370 233.034, 168.786 233.687 C 169.201 234.341, 170.738 235.330, 172.201 235.886 C 174.360 236.707, 175.344 236.517, 177.430 234.876 C 179.922 232.916, 180 232.508, 180 221.427 C 180 215.142, 180.346 210, 180.770 210 C 181.193 210, 185.777 214.255, 190.956 219.456 L 200.373 228.912 195.187 234.396 C 189.704 240.193, 188.695 243.552, 191.571 246.429 C 194.545 249.402, 198.096 248.337, 203.717 242.786 L 208.997 237.572 213.748 242.145 C 219.695 247.868, 221.221 248.401, 224.436 245.872 C 228.259 242.865, 227.668 240.083, 222.026 234.526 L 217.052 229.626 222.526 223.887 C 225.537 220.731, 228 217.248, 228 216.147 C 228 213.369, 223.243 209.799, 220.593 210.588 C 219.442 210.930, 216.235 213.414, 213.467 216.107 L 208.434 221.003 203.171 215.673 L 197.908 210.344 202.049 209.103 C 204.477 208.376, 207.971 206.082, 210.495 203.558 C 218.348 195.705, 218.853 184.130, 211.721 175.477 C 206.514 169.160, 202.659 168.047, 185.905 168.022 C 173.019 168.003, 171.116 168.214, 169.655 169.829 M 180 189 L 180 198 189.911 198 C 199.751 198, 199.841 197.978, 202.411 194.923 C 205.918 190.756, 205.803 186.650, 202.077 182.923 C 199.253 180.099, 198.829 180, 189.577 180 L 180 180 180 189 M 169.415 294.389 C 162.737 297.367, 160.171 304.562, 163.494 310.989 C 166.575 316.947, 166.870 317, 196.823 317 L 224.200 317 227.600 313.600 C 230.484 310.716, 231 309.500, 231 305.585 C 231 301.726, 230.440 300.359, 227.578 297.235 L 224.157 293.500 198.328 293.257 C 178.153 293.067, 171.825 293.315, 169.415 294.389 M 170.538 339.482 C 163.274 342.100, 160.356 348.970, 163.647 355.707 C 167.371 363.331, 163.725 362.997, 243.282 362.998 C 318.619 363, 318.043 363.035, 322.335 358.216 C 326.661 353.357, 325.077 344.063, 319.274 340.259 C 316.784 338.627, 311.445 338.484, 245.545 338.277 C 186.100 338.091, 173.853 338.288, 170.538 339.482 M 166.566 387.076 C 164.452 388.932, 162.819 391.447, 162.450 393.415 C 161.603 397.928, 164.152 403.510, 168.190 405.985 C 171.447 407.982, 172.674 408.010, 244.827 407.757 L 318.154 407.500 321.577 403.765 C 325.445 399.543, 326.076 394.981, 323.483 389.967 C 320.285 383.783, 323.209 384, 243.084 384 L 170.070 384 166.566 387.076" stroke="none" fill="#fafafa" fill-rule="evenodd"/></svg>